<?xml version="1.0" encoding="utf-8"?><svg width="76" height="76" viewBox="0 0 76 76" xmlns="http://www.w3.org/2000/svg" xmlns:xlink="http://www.w3.org/1999/xlink"><svg width="26" height="26" fill="none" viewBox="0 0 26 26" id="comment" xmlns="http://www.w3.org/2000/svg"><g clip-path="url(#aclip0)" fill="#FEB22E"><path d="M13 26c7.168 0 13-5.832 13-13 0-1.237-.173-2.457-.515-3.624a1.082 1.082 0 10-2.08.608c.284.97.428 1.985.428 3.016 0 5.973-4.86 10.833-10.833 10.833S2.167 18.973 2.167 13 7.027 2.167 13 2.167c2.17 0 4.26.634 6.04 1.835a1.083 1.083 0 001.211-1.796A12.92 12.92 0 0013 0C5.832 0 0 5.832 0 13s5.832 13 13 13z"/><path d="M24.15 2.484L13 13.634l-3.567-3.567A1.083 1.083 0 007.9 11.6l4.333 4.334c.212.212.489.317.766.317s.554-.105.766-.317L25.683 4.016a1.083 1.083 0 00-1.532-1.532z"/></g><defs><clipPath id="aclip0"><path fill="#fff" d="M0 0h26v26H0z"/></clipPath></defs></svg><svg width="26" height="26" fill="none" viewBox="0 0 26 26" id="popup-close" x="26" y="26" xmlns="http://www.w3.org/2000/svg"><path d="M25.276 23.26L2.648.633l-1.94 1.94L23.337 25.2l1.94-1.94z" fill="#272526"/><path d="M23.338.632L.711 23.26l1.94 1.94L25.278 2.572l-1.94-1.94z" fill="#272526"/></svg><svg width="12" height="12" fill="none" viewBox="0 0 12 12" id="right" x="52" y="52" xmlns="http://www.w3.org/2000/svg"><path d="M4 1l5 5-5 5" stroke="#363C4E" stroke-width="1.8" stroke-linecap="round" stroke-linejoin="round"/></svg><svg width="12" height="12" fill="none" viewBox="0 0 12 12" id="right-primary" x="64" y="64" xmlns="http://www.w3.org/2000/svg"><path d="M4 1l5 5-5 5" stroke="#F2C94C" stroke-width="1.8" stroke-linecap="round" stroke-linejoin="round"/></svg></svg>