<?xml version="1.0" encoding="utf-8"?><svg xmlns="http://www.w3.org/2000/svg" xmlns:xlink="http://www.w3.org/1999/xlink"><symbol fill="none" viewBox="0 0 10 12" id="action--arrow-left" xmlns="http://www.w3.org/2000/svg"><path d="M6.818 10.545L2.273 6l4.545-4.546" stroke="currentColor" stroke-width="1.8" stroke-linecap="round" stroke-linejoin="round"/></symbol><symbol fill="none" viewBox="0 0 12 14" id="action--arrow-right" xmlns="http://www.w3.org/2000/svg"><path d="M4.363 1.545L9.818 7l-5.455 5.454" stroke="currentColor" stroke-width="1.8" stroke-linecap="round" stroke-linejoin="round"/></symbol><symbol fill="none" viewBox="0 0 22 22" id="action--download" xmlns="http://www.w3.org/2000/svg"><path d="M18 9.663L11 16.5m0 0L4 9.663m7 6.837V1M3 21h16" stroke="currentColor" stroke-width="1.6" stroke-linecap="round" stroke-linejoin="round"/></symbol><symbol fill="none" viewBox="0 0 12 12" id="action--expand-down" xmlns="http://www.w3.org/2000/svg"><path d="M10 5L6 9 2 5" stroke="currentColor" stroke-width="1.8" stroke-linecap="round" stroke-linejoin="round"/></symbol><symbol fill="none" viewBox="0 0 19 20" id="action--search" xmlns="http://www.w3.org/2000/svg"><path d="M12.242 13.194l-.615-.656.615.656zm4.3 5.621a.9.9 0 001.28-1.267l-1.28 1.267zM14.129 6.841l-.872.22.872-.22zM9.19 14.834l.21.875-.21-.875zm2.413-1.007l4.94 4.988 1.279-1.267-4.94-4.987-1.28 1.266zm-2.624.132c-3.158.762-6.321-1.128-7.09-4.175l-1.745.44c1.018 4.036 5.172 6.47 9.257 5.485l-.422-1.75zm-7.09-4.175c-.766-3.038 1.127-6.137 4.277-6.897l-.422-1.75c-4.09.987-6.62 5.045-5.6 9.088l1.745-.44zm4.277-6.897c3.157-.762 6.321 1.128 7.09 4.175L15 6.622C13.983 2.585 9.828.151 5.744 1.136l.422 1.75zm7.09 4.175c.515 2.043-.169 4.106-1.63 5.476l1.232 1.313c1.912-1.793 2.827-4.518 2.143-7.23l-1.745.44zm-1.63 5.476a5.866 5.866 0 01-2.647 1.421l.422 1.75a7.666 7.666 0 003.457-1.858l-1.231-1.313z" fill="currentColor"/></symbol><symbol fill="none" viewBox="0 0 26 26" id="popup-close" xmlns="http://www.w3.org/2000/svg"><path d="M25.276 23.26L2.648.633l-1.94 1.94L23.337 25.2l1.94-1.94z" fill="#272526"/><path d="M23.338.632L.711 23.26l1.94 1.94L25.278 2.572l-1.94-1.94z" fill="#272526"/></symbol></svg>