<svg width="26" height="26" viewBox="0 0 26 26" fill="none" xmlns="http://www.w3.org/2000/svg">
    <g clip-path="url(#clip0)">
        <path d="M13 26C20.1678 26 26 20.1684 26 13C26 11.7627 25.8273 10.5435 25.4853 9.37575C25.3168 8.80155 24.7172 8.47174 24.1415 8.64022C23.5667 8.80817 23.238 9.40987 23.4059 9.98407C23.6892 10.9542 23.8333 11.9693 23.8333 13C23.8333 18.9734 18.9734 23.8333 13 23.8333C7.02659 23.8333 2.16667 18.9734 2.16667 13C2.16667 7.02659 7.02659 2.16667 13 2.16667C15.1709 2.16667 17.2595 2.80143 19.0401 4.00193C19.5357 4.33651 20.2096 4.20506 20.5437 3.70941C20.878 3.21324 20.7476 2.53986 20.2514 2.20555C18.1117 0.762777 15.6044 0 13 0C5.83217 0 0 5.83164 0 13C0 20.1684 5.83217 26 13 26V26Z"
              fill="#FEB22E"/>
        <path d="M24.1507 2.48405L13 13.6342L9.43258 10.0674C9.0094 9.64447 8.32386 9.64447 7.90068 10.0674C7.47777 10.4906 7.47777 11.1761 7.90068 11.5993L12.234 15.9326C12.4459 16.1445 12.7225 16.25 13 16.25C13.2774 16.25 13.5541 16.1445 13.7659 15.9326L25.6826 4.01596C26.1055 3.59278 26.1055 2.90723 25.6826 2.48405C25.2594 2.06114 24.5739 2.06114 24.1507 2.48405Z"
              fill="#FEB22E"/>
    </g>
    <defs>
        <clipPath id="clip0">
            <rect width="26" height="26" fill="white"/>
        </clipPath>
    </defs>
</svg>
